M48
; DRILL file KiCad 10.0.2 date 2026-05-17T16:33:44
; FORMAT={-:-/ absolute / metric / decimal}
; #@! TF.CreationDate,2026-05-17T16:33:44-04:00
; #@! TF.GenerationSoftware,Kicad,Pcbnew,10.0.2
; #@! TF.FileFunction,Plated,1,4,PTH
FMAT,2
METRIC
; #@! TA.AperFunction,Plated,PTH,ComponentDrill
T1C0.200
; #@! TA.AperFunction,Plated,PTH,ViaDrill
T2C0.300
; #@! TA.AperFunction,Plated,PTH,ComponentDrill
T3C1.000
; #@! TA.AperFunction,Plated,PTH,ComponentDrill
T4C2.200
%
G90
G05
T1
X100.025Y-53.0
X100.6Y-52.05
X100.6Y-53.95
X101.175Y-53.0
X116.525Y-53.5
X117.1Y-52.55
X117.1Y-54.45
X117.675Y-53.5
X118.625Y-70.225
X119.2Y-69.275
X119.2Y-71.175
X119.775Y-70.225
T2
X87.84Y-130.34
X87.84Y-132.88
X87.84Y-135.42
X87.84Y-137.96
X87.84Y-140.5
X88.0Y-97.0
X88.5Y-68.0
X88.5Y-69.5
X88.5Y-71.0
X88.5Y-71.0
X88.5Y-72.5
X88.5Y-72.5
X88.5Y-74.0
X88.5Y-74.0
X88.5Y-75.5
X88.5Y-75.5
X88.5Y-77.0
X88.5Y-77.0
X88.5Y-78.5
X88.5Y-78.5
X88.5Y-83.0
X89.5Y-97.0
X89.5Y-103.5
X90.0Y-78.5
X90.0Y-78.5
X90.0Y-83.0
X90.38Y-130.34
X90.38Y-132.88
X90.38Y-135.42
X90.38Y-137.96
X90.38Y-140.5
X91.0Y-97.0
X91.5Y-78.5
X91.5Y-78.5
X92.5Y-47.0
X92.5Y-48.5
X92.5Y-50.0
X92.5Y-51.5
X92.5Y-53.0
X92.5Y-54.5
X92.5Y-56.0
X92.5Y-57.5
X92.5Y-59.0
X92.5Y-60.5
X92.5Y-97.0
X92.92Y-130.34
X92.92Y-132.88
X92.92Y-135.42
X92.92Y-137.96
X92.92Y-140.5
X93.0Y-78.5
X93.0Y-78.5
X93.0Y-80.0
X93.0Y-80.0
X93.0Y-81.5
X93.0Y-81.5
X93.0Y-83.0
X93.0Y-83.0
X94.0Y-47.0
X94.0Y-48.5
X94.0Y-50.0
X94.0Y-56.0
X94.0Y-57.5
X94.0Y-59.0
X94.0Y-60.5
X94.0Y-97.0
X94.5Y-32.0
X94.5Y-33.0
X94.5Y-34.0
X94.5Y-81.0
X94.5Y-83.0
X94.5Y-83.0
X94.5Y-148.0
X94.5Y-149.5
X95.0Y-73.0
X95.46Y-130.34
X95.46Y-132.88
X95.46Y-135.42
X95.46Y-137.96
X95.46Y-140.5
X95.5Y-32.5
X95.5Y-34.0
X95.5Y-35.0
X95.5Y-47.0
X95.5Y-48.5
X95.5Y-50.0
X95.5Y-57.5
X95.5Y-59.0
X95.5Y-60.5
X95.5Y-68.5
X95.5Y-68.5
X95.5Y-77.0
X95.5Y-97.0
X96.0Y-26.0
X96.0Y-27.5
X96.0Y-29.0
X96.0Y-75.0
X96.0Y-75.0
X96.0Y-83.0
X96.0Y-146.5
X96.0Y-148.0
X96.0Y-149.5
X96.5Y-35.0
X96.5Y-36.0
X96.5Y-37.0
X96.5Y-43.5
X96.5Y-57.0
X96.5Y-59.0
X96.5Y-60.5
X96.5Y-152.0
X96.5Y-159.0
X97.0Y-47.0
X97.0Y-48.5
X97.0Y-50.0
X97.0Y-68.5
X97.0Y-68.5
X97.0Y-97.0
X97.5Y-24.5
X97.5Y-26.0
X97.5Y-28.0
X97.5Y-33.5
X97.5Y-37.0
X97.5Y-58.0
X97.5Y-74.5
X97.5Y-77.0
X97.5Y-83.0
X97.5Y-145.0
X97.5Y-146.5
X97.5Y-148.0
X97.5Y-149.5
X98.0Y-60.5
X98.0Y-130.34
X98.0Y-132.88
X98.0Y-135.42
X98.0Y-137.96
X98.0Y-140.5
X98.5Y-37.0
X98.5Y-47.0
X98.5Y-68.5
X98.5Y-68.5
X98.5Y-97.0
X99.0Y-24.5
X99.0Y-74.0
X99.0Y-83.0
X99.0Y-83.0
X99.0Y-143.5
X99.0Y-145.0
X99.0Y-146.5
X99.0Y-148.0
X99.0Y-149.5
X99.5Y-35.5
X99.5Y-37.0
X99.5Y-60.5
X99.5Y-160.0
X99.5Y-160.0
X100.0Y-47.0
X100.0Y-68.5
X100.0Y-68.5
X100.0Y-73.0
X100.0Y-97.0
X100.5Y-24.5
X100.5Y-72.0
X100.5Y-77.5
X100.5Y-80.0
X100.5Y-80.0
X100.5Y-81.5
X100.5Y-81.5
X100.5Y-83.0
X100.5Y-83.0
X100.5Y-142.0
X100.5Y-143.5
X100.5Y-146.5
X100.5Y-148.0
X101.0Y-60.5
X101.5Y-84.5
X101.5Y-86.0
X101.5Y-87.5
X101.5Y-89.0
X101.5Y-91.0
X101.5Y-92.5
X101.5Y-94.0
X101.5Y-95.5
X101.5Y-97.0
X102.0Y-20.5
X102.0Y-21.5
X102.0Y-22.5
X102.0Y-24.5
X102.0Y-25.5
X102.0Y-80.0
X102.0Y-80.0
X102.0Y-142.0
X102.5Y-49.5
X102.5Y-60.5
X103.0Y-47.0
X103.5Y-80.0
X104.0Y-29.0
X104.0Y-32.0
X104.0Y-33.0
X104.0Y-34.0
X104.0Y-35.0
X104.0Y-54.5
X104.0Y-56.0
X104.0Y-57.5
X104.0Y-59.0
X104.0Y-60.5
X104.0Y-69.5
X104.0Y-72.0
X104.0Y-153.0
X104.0Y-155.5
X104.5Y-47.0
X104.5Y-48.5
X105.0Y-32.0
X105.0Y-54.5
X105.0Y-56.0
X105.0Y-57.5
X105.0Y-59.0
X105.0Y-60.5
X105.0Y-80.0
X105.0Y-155.5
X105.5Y-72.0
X106.0Y-47.0
X106.0Y-48.5
X106.0Y-54.5
X106.0Y-56.0
X106.0Y-57.5
X106.0Y-59.0
X106.0Y-60.5
X106.5Y-80.0
X106.5Y-136.0
X106.5Y-137.5
X107.0Y-72.0
X107.0Y-73.5
X107.0Y-75.0
X107.0Y-77.5
X107.5Y-47.0
X107.5Y-48.5
X108.0Y-32.0
X108.0Y-136.0
X108.0Y-137.5
X108.0Y-139.0
X108.0Y-140.5
X108.0Y-155.5
X109.0Y-47.0
X109.0Y-48.5
X109.0Y-50.0
X109.0Y-51.5
X109.0Y-53.0
X109.0Y-54.5
X109.0Y-56.0
X109.5Y-27.5
X109.5Y-29.0
X109.5Y-30.0
X109.5Y-31.0
X109.5Y-32.0
X109.5Y-136.0
X109.5Y-137.5
X109.5Y-139.0
X109.5Y-140.5
X109.5Y-155.5
X110.0Y-142.5
X110.5Y-74.0
X111.0Y-20.5
X111.0Y-21.5
X111.0Y-22.5
X111.0Y-23.5
X111.0Y-136.0
X111.0Y-137.5
X111.0Y-139.0
X111.0Y-140.5
X111.0Y-155.5
X112.0Y-103.0
X112.5Y-26.0
X112.5Y-136.0
X112.5Y-137.5
X112.5Y-139.0
X112.5Y-140.5
X112.5Y-142.0
X112.5Y-143.5
X112.5Y-145.0
X112.5Y-146.5
X112.5Y-148.0
X112.5Y-149.5
X112.5Y-151.0
X112.5Y-152.5
X113.5Y-58.5
X113.84Y-27.34
X113.84Y-29.88
X113.84Y-32.42
X113.84Y-34.96
X113.84Y-37.5
X114.0Y-136.0
X114.0Y-137.5
X114.0Y-139.0
X114.0Y-140.5
X114.0Y-142.0
X114.0Y-143.5
X114.0Y-145.0
X114.0Y-146.5
X114.0Y-148.0
X114.0Y-149.5
X114.0Y-151.0
X114.0Y-152.5
X115.5Y-136.0
X115.5Y-137.5
X115.5Y-139.0
X115.5Y-140.5
X115.5Y-142.0
X115.5Y-143.5
X115.5Y-154.0
X116.0Y-73.5
X116.0Y-104.5
X116.38Y-27.34
X116.38Y-29.88
X116.38Y-32.42
X116.38Y-34.96
X116.38Y-37.5
X116.5Y-64.5
X117.0Y-136.0
X117.0Y-137.5
X117.0Y-139.0
X117.0Y-140.5
X117.0Y-142.0
X117.42Y-88.92
X117.42Y-91.46
X117.42Y-94.0
X117.5Y-119.0
X118.5Y-46.5
X118.5Y-49.5
X118.5Y-80.0
X118.5Y-81.5
X118.5Y-136.0
X118.5Y-137.5
X118.5Y-139.0
X118.5Y-140.5
X118.92Y-27.34
X118.92Y-29.88
X118.92Y-32.42
X118.92Y-34.96
X118.92Y-37.5
X119.96Y-88.92
X119.96Y-91.46
X119.96Y-94.0
X120.0Y-136.0
X120.0Y-137.5
X120.0Y-139.0
X120.5Y-52.0
X120.5Y-58.5
X120.775Y-66.225
X121.0Y-44.5
X121.46Y-27.34
X121.46Y-29.88
X121.46Y-32.42
X121.46Y-34.96
X121.46Y-37.5
X121.5Y-99.5
X121.5Y-136.0
X121.5Y-137.5
X121.5Y-148.5
X122.275Y-75.225
X122.5Y-42.0
X122.5Y-45.0
X122.5Y-50.5
X122.5Y-88.92
X122.5Y-91.46
X122.5Y-94.0
X124.0Y-27.34
X124.0Y-29.88
X124.0Y-32.42
X124.0Y-34.96
X124.0Y-37.5
X124.5Y-45.0
X124.5Y-100.0
X127.0Y-109.5
X127.84Y-150.84
X127.84Y-153.38
X127.84Y-155.92
X127.84Y-158.46
X127.84Y-161.0
X130.38Y-150.84
X130.38Y-153.38
X130.38Y-155.92
X130.38Y-158.46
X130.38Y-161.0
X132.92Y-150.84
X132.92Y-153.38
X132.92Y-155.92
X132.92Y-158.46
X132.92Y-161.0
X134.0Y-111.0
X134.34Y-29.84
X134.34Y-32.38
X134.34Y-34.92
X134.34Y-37.46
X134.34Y-40.0
X135.46Y-150.84
X135.46Y-153.38
X135.46Y-155.92
X135.46Y-158.46
X135.46Y-161.0
X135.5Y-111.0
X136.88Y-29.84
X136.88Y-32.38
X136.88Y-34.92
X136.88Y-37.46
X136.88Y-40.0
X137.34Y-69.84
X137.34Y-72.38
X137.34Y-74.92
X137.34Y-77.46
X137.34Y-80.0
X137.34Y-82.34
X137.34Y-84.88
X137.34Y-87.42
X137.34Y-89.96
X137.34Y-92.5
X137.34Y-94.84
X137.34Y-97.38
X137.34Y-99.92
X137.34Y-102.46
X137.34Y-105.0
X137.38Y-57.46
X137.38Y-60.0
X137.38Y-62.54
X137.38Y-65.08
X137.38Y-67.62
X138.0Y-111.0
X138.0Y-150.84
X138.0Y-153.38
X138.0Y-155.92
X138.0Y-158.46
X138.0Y-161.0
X139.42Y-29.84
X139.42Y-32.38
X139.42Y-34.92
X139.42Y-37.46
X139.42Y-40.0
X139.5Y-111.0
X139.88Y-69.84
X139.88Y-72.38
X139.88Y-74.92
X139.88Y-77.46
X139.88Y-80.0
X139.88Y-82.34
X139.88Y-84.88
X139.88Y-87.42
X139.88Y-89.96
X139.88Y-92.5
X139.88Y-94.84
X139.88Y-97.38
X139.88Y-99.92
X139.88Y-102.46
X139.88Y-105.0
X139.92Y-57.46
X139.92Y-60.0
X139.92Y-62.54
X139.92Y-65.08
X139.92Y-67.62
X140.84Y-139.84
X140.84Y-142.38
X140.84Y-144.92
X140.84Y-147.46
X140.84Y-150.0
X141.5Y-49.0
X141.92Y-116.92
X141.92Y-119.46
X141.92Y-122.0
X141.96Y-29.84
X141.96Y-32.38
X141.96Y-34.92
X141.96Y-37.46
X141.96Y-40.0
X142.42Y-69.84
X142.42Y-72.38
X142.42Y-74.92
X142.42Y-77.46
X142.42Y-80.0
X142.42Y-82.34
X142.42Y-84.88
X142.42Y-87.42
X142.42Y-89.96
X142.42Y-92.5
X142.42Y-94.84
X142.42Y-97.38
X142.42Y-99.92
X142.42Y-102.46
X142.42Y-105.0
X142.46Y-57.46
X142.46Y-60.0
X142.46Y-62.54
X142.46Y-65.08
X142.46Y-67.62
X143.38Y-139.84
X143.38Y-142.38
X143.38Y-144.92
X143.38Y-147.46
X143.38Y-150.0
X143.5Y-49.0
X143.5Y-52.0
X144.46Y-116.92
X144.46Y-119.46
X144.46Y-122.0
X144.5Y-29.84
X144.5Y-32.38
X144.5Y-34.92
X144.5Y-37.46
X144.5Y-40.0
X144.96Y-69.84
X144.96Y-72.38
X144.96Y-74.92
X144.96Y-77.46
X144.96Y-80.0
X144.96Y-82.34
X144.96Y-84.88
X144.96Y-87.42
X144.96Y-89.96
X144.96Y-92.5
X144.96Y-94.84
X144.96Y-97.38
X144.96Y-99.92
X144.96Y-102.46
X144.96Y-105.0
X145.0Y-57.46
X145.0Y-60.0
X145.0Y-62.54
X145.0Y-65.08
X145.0Y-67.62
X145.0Y-111.0
X145.5Y-46.0
X145.5Y-49.0
X145.5Y-52.0
X145.92Y-139.84
X145.92Y-142.38
X145.92Y-144.92
X145.92Y-147.46
X145.92Y-150.0
X146.5Y-111.0
X147.0Y-116.92
X147.0Y-119.46
X147.0Y-122.0
X147.34Y-29.84
X147.34Y-32.38
X147.34Y-34.92
X147.34Y-37.46
X147.34Y-40.0
X147.5Y-46.0
X147.5Y-49.0
X147.5Y-52.0
X147.5Y-69.84
X147.5Y-72.38
X147.5Y-74.92
X147.5Y-77.46
X147.5Y-80.0
X147.5Y-82.34
X147.5Y-84.88
X147.5Y-87.42
X147.5Y-89.96
X147.5Y-92.5
X147.5Y-94.84
X147.5Y-97.38
X147.5Y-99.92
X147.5Y-102.46
X147.5Y-105.0
X147.54Y-57.46
X147.54Y-60.0
X147.54Y-62.54
X147.54Y-65.08
X147.54Y-67.62
X148.0Y-111.0
X148.46Y-139.84
X148.46Y-142.38
X148.46Y-144.92
X148.46Y-147.46
X148.46Y-150.0
X149.5Y-46.0
X149.5Y-49.0
X149.5Y-52.0
X149.5Y-111.0
X149.88Y-29.84
X149.88Y-32.38
X149.88Y-34.92
X149.88Y-37.46
X149.88Y-40.0
X150.34Y-57.34
X150.34Y-59.88
X150.34Y-62.42
X150.34Y-64.96
X150.34Y-67.5
X150.34Y-69.84
X150.34Y-72.38
X150.34Y-74.92
X150.34Y-77.46
X150.34Y-80.0
X150.34Y-82.34
X150.34Y-84.88
X150.34Y-87.42
X150.34Y-89.96
X150.34Y-92.5
X150.34Y-94.84
X150.34Y-97.38
X150.34Y-99.92
X150.34Y-102.46
X150.34Y-105.0
X151.0Y-111.0
X151.0Y-139.84
X151.0Y-142.38
X151.0Y-144.92
X151.0Y-147.46
X151.0Y-150.0
X151.5Y-46.0
X151.5Y-49.0
X151.5Y-52.0
X152.42Y-29.84
X152.42Y-32.38
X152.42Y-34.92
X152.42Y-37.46
X152.42Y-40.0
X152.84Y-125.84
X152.84Y-128.38
X152.84Y-130.92
X152.84Y-133.46
X152.84Y-136.0
X152.84Y-150.34
X152.84Y-152.88
X152.84Y-155.42
X152.84Y-157.96
X152.84Y-160.5
X152.88Y-57.34
X152.88Y-59.88
X152.88Y-62.42
X152.88Y-64.96
X152.88Y-67.5
X152.88Y-69.84
X152.88Y-72.38
X152.88Y-74.92
X152.88Y-77.46
X152.88Y-80.0
X152.88Y-82.34
X152.88Y-84.88
X152.88Y-87.42
X152.88Y-89.96
X152.88Y-92.5
X152.88Y-94.84
X152.88Y-97.38
X152.88Y-99.92
X152.88Y-102.46
X152.88Y-105.0
X153.5Y-46.0
X153.5Y-49.0
X153.5Y-52.0
X154.96Y-29.84
X154.96Y-32.38
X154.96Y-34.92
X154.96Y-37.46
X154.96Y-40.0
X155.38Y-125.84
X155.38Y-128.38
X155.38Y-130.92
X155.38Y-133.46
X155.38Y-136.0
X155.38Y-150.34
X155.38Y-152.88
X155.38Y-155.42
X155.38Y-157.96
X155.38Y-160.5
X155.42Y-57.34
X155.42Y-59.88
X155.42Y-62.42
X155.42Y-64.96
X155.42Y-67.5
X155.42Y-69.84
X155.42Y-72.38
X155.42Y-74.92
X155.42Y-77.46
X155.42Y-80.0
X155.42Y-82.34
X155.42Y-84.88
X155.42Y-87.42
X155.42Y-89.96
X155.42Y-92.5
X155.42Y-94.84
X155.42Y-97.38
X155.42Y-99.92
X155.42Y-102.46
X155.42Y-105.0
X155.5Y-46.0
X155.5Y-49.0
X155.5Y-52.0
X155.5Y-113.5
X156.0Y-120.5
X156.5Y-114.5
X157.5Y-29.84
X157.5Y-32.38
X157.5Y-34.92
X157.5Y-37.46
X157.5Y-40.0
X157.5Y-46.0
X157.5Y-49.0
X157.5Y-52.0
X157.5Y-115.5
X157.92Y-125.84
X157.92Y-128.38
X157.92Y-130.92
X157.92Y-133.46
X157.92Y-136.0
X157.92Y-150.34
X157.92Y-152.88
X157.92Y-155.42
X157.92Y-157.96
X157.92Y-160.5
X157.96Y-57.34
X157.96Y-59.88
X157.96Y-62.42
X157.96Y-64.96
X157.96Y-67.5
X157.96Y-69.84
X157.96Y-72.38
X157.96Y-74.92
X157.96Y-77.46
X157.96Y-80.0
X157.96Y-82.34
X157.96Y-84.88
X157.96Y-87.42
X157.96Y-89.96
X157.96Y-92.5
X157.96Y-94.84
X157.96Y-97.38
X157.96Y-99.92
X157.96Y-102.46
X157.96Y-105.0
X158.5Y-116.5
X159.5Y-46.0
X159.5Y-49.0
X159.5Y-52.0
X159.5Y-117.5
X160.46Y-125.84
X160.46Y-128.38
X160.46Y-130.92
X160.46Y-133.46
X160.46Y-136.0
X160.46Y-150.34
X160.46Y-152.88
X160.46Y-155.42
X160.46Y-157.96
X160.46Y-160.5
X160.5Y-57.34
X160.5Y-59.88
X160.5Y-62.42
X160.5Y-64.96
X160.5Y-67.5
X160.5Y-69.84
X160.5Y-72.38
X160.5Y-74.92
X160.5Y-77.46
X160.5Y-80.0
X160.5Y-82.34
X160.5Y-84.88
X160.5Y-87.42
X160.5Y-89.96
X160.5Y-92.5
X160.5Y-94.84
X160.5Y-97.38
X160.5Y-99.92
X160.5Y-102.46
X160.5Y-105.0
X160.5Y-118.5
X160.84Y-29.84
X160.84Y-32.38
X160.84Y-34.92
X160.84Y-37.46
X160.84Y-40.0
X161.5Y-46.0
X161.5Y-49.0
X161.5Y-52.0
X161.5Y-119.5
X162.84Y-57.34
X162.84Y-59.88
X162.84Y-62.42
X162.84Y-64.96
X162.84Y-67.5
X162.84Y-69.84
X162.84Y-72.38
X162.84Y-74.92
X162.84Y-77.46
X162.84Y-80.0
X162.84Y-82.84
X162.84Y-85.38
X162.84Y-87.92
X162.84Y-90.46
X162.84Y-93.0
X163.0Y-125.84
X163.0Y-128.38
X163.0Y-130.92
X163.0Y-133.46
X163.0Y-136.0
X163.0Y-150.34
X163.0Y-152.88
X163.0Y-155.42
X163.0Y-157.96
X163.0Y-160.5
X163.38Y-29.84
X163.38Y-32.38
X163.38Y-34.92
X163.38Y-37.46
X163.38Y-40.0
X163.5Y-46.0
X163.5Y-49.0
X163.5Y-52.0
X164.0Y-122.0
X164.34Y-138.84
X164.34Y-141.38
X164.34Y-143.92
X164.34Y-146.46
X164.34Y-149.0
X164.92Y-114.42
X164.92Y-116.96
X164.92Y-119.5
X165.0Y-123.0
X165.38Y-57.34
X165.38Y-59.88
X165.38Y-62.42
X165.38Y-64.96
X165.38Y-67.5
X165.38Y-69.84
X165.38Y-72.38
X165.38Y-74.92
X165.38Y-77.46
X165.38Y-80.0
X165.38Y-82.84
X165.38Y-85.38
X165.38Y-87.92
X165.38Y-90.46
X165.38Y-93.0
X165.5Y-46.0
X165.5Y-49.0
X165.5Y-52.0
X165.92Y-29.84
X165.92Y-32.38
X165.92Y-34.92
X165.92Y-37.46
X165.92Y-40.0
X166.0Y-124.0
X166.88Y-138.84
X166.88Y-141.38
X166.88Y-143.92
X166.88Y-146.46
X166.88Y-149.0
X167.0Y-125.0
X167.46Y-114.42
X167.46Y-116.96
X167.46Y-119.5
X167.5Y-46.0
X167.5Y-49.0
X167.5Y-52.0
X167.92Y-57.34
X167.92Y-59.88
X167.92Y-62.42
X167.92Y-64.96
X167.92Y-67.5
X167.92Y-69.84
X167.92Y-72.38
X167.92Y-74.92
X167.92Y-77.46
X167.92Y-80.0
X167.92Y-82.84
X167.92Y-85.38
X167.92Y-87.92
X167.92Y-90.46
X167.92Y-93.0
X168.0Y-126.0
X168.46Y-29.84
X168.46Y-32.38
X168.46Y-34.92
X168.46Y-37.46
X168.46Y-40.0
X169.0Y-127.0
X169.42Y-138.84
X169.42Y-141.38
X169.42Y-143.92
X169.42Y-146.46
X169.42Y-149.0
X169.5Y-46.0
X169.5Y-49.0
X169.5Y-52.0
X170.0Y-114.42
X170.0Y-116.96
X170.0Y-119.5
X170.0Y-128.0
X170.46Y-57.34
X170.46Y-59.88
X170.46Y-62.42
X170.46Y-64.96
X170.46Y-67.5
X170.46Y-69.84
X170.46Y-72.38
X170.46Y-74.92
X170.46Y-77.46
X170.46Y-80.0
X170.46Y-82.84
X170.46Y-85.38
X170.46Y-87.92
X170.46Y-90.46
X170.46Y-93.0
X171.0Y-29.84
X171.0Y-32.38
X171.0Y-34.92
X171.0Y-37.46
X171.0Y-40.0
X171.0Y-129.0
X171.5Y-46.0
X171.5Y-49.0
X171.5Y-52.0
X171.96Y-138.84
X171.96Y-141.38
X171.96Y-143.92
X171.96Y-146.46
X171.96Y-149.0
X172.0Y-130.0
X172.92Y-122.42
X172.92Y-124.96
X172.92Y-127.5
X173.0Y-57.34
X173.0Y-59.88
X173.0Y-62.42
X173.0Y-64.96
X173.0Y-67.5
X173.0Y-69.84
X173.0Y-72.38
X173.0Y-74.92
X173.0Y-77.46
X173.0Y-80.0
X173.0Y-82.84
X173.0Y-85.38
X173.0Y-87.92
X173.0Y-90.46
X173.0Y-131.0
X173.5Y-46.0
X173.5Y-49.0
X173.5Y-52.0
X174.0Y-132.0
X174.0Y-135.0
X174.34Y-29.84
X174.34Y-32.38
X174.34Y-34.92
X174.34Y-37.46
X174.34Y-40.0
X174.5Y-138.84
X174.5Y-141.38
X174.5Y-143.92
X174.5Y-146.46
X174.5Y-149.0
X175.0Y-133.0
X175.46Y-122.42
X175.46Y-124.96
X175.46Y-127.5
X175.5Y-46.0
X175.5Y-49.0
X175.5Y-52.0
X176.0Y-107.0
X176.0Y-134.0
X176.88Y-29.84
X176.88Y-32.38
X176.88Y-34.92
X176.88Y-37.46
X176.88Y-40.0
X177.0Y-72.5
X177.0Y-74.0
X177.0Y-75.5
X177.0Y-77.0
X177.0Y-78.5
X177.0Y-80.0
X177.0Y-81.5
X177.0Y-83.0
X177.0Y-84.5
X177.0Y-86.0
X177.0Y-87.5
X177.0Y-89.0
X177.0Y-90.5
X177.0Y-92.0
X177.0Y-93.5
X177.0Y-96.0
X177.0Y-97.5
X177.0Y-99.0
X177.0Y-100.5
X177.0Y-102.0
X177.0Y-103.5
X177.0Y-105.0
X177.0Y-108.0
X177.5Y-46.0
X177.5Y-49.0
X177.5Y-52.0
X177.5Y-137.5
X178.0Y-71.5
X178.0Y-114.5
X178.0Y-122.42
X178.0Y-124.96
X178.0Y-127.5
X178.5Y-136.5
X179.0Y-138.5
X179.42Y-29.84
X179.42Y-32.38
X179.42Y-34.92
X179.42Y-37.46
X179.42Y-40.0
X179.5Y-46.0
X179.5Y-49.0
X179.5Y-52.0
X179.5Y-74.0
X179.5Y-75.5
X179.5Y-77.0
X179.5Y-78.5
X179.5Y-80.0
X179.5Y-81.5
X179.5Y-83.0
X179.5Y-84.5
X179.5Y-86.0
X179.5Y-87.5
X179.5Y-89.0
X179.5Y-90.5
X179.5Y-94.0
X179.5Y-95.5
X179.5Y-97.0
X179.5Y-98.5
X179.5Y-100.0
X179.5Y-101.5
X179.5Y-103.0
X179.5Y-104.5
X179.5Y-106.0
X179.5Y-108.0
X180.0Y-140.0
X180.5Y-132.0
X181.5Y-46.0
X181.5Y-49.0
X181.5Y-52.0
X181.5Y-113.5
X181.5Y-115.5
X181.92Y-122.42
X181.92Y-124.96
X181.92Y-127.5
X181.96Y-29.84
X181.96Y-32.38
X181.96Y-34.92
X181.96Y-37.46
X181.96Y-40.0
X182.0Y-67.5
X183.0Y-66.5
X183.0Y-114.5
X183.5Y-46.0
X183.5Y-49.0
X183.5Y-52.0
X183.5Y-75.5
X184.0Y-65.5
X184.46Y-122.42
X184.46Y-124.96
X184.46Y-127.5
X184.5Y-29.84
X184.5Y-32.38
X184.5Y-34.92
X184.5Y-37.46
X184.5Y-40.0
X184.5Y-72.5
X184.5Y-74.5
X184.5Y-84.5
X185.0Y-64.5
X185.0Y-77.0
X185.0Y-111.0
X185.5Y-46.0
X185.5Y-49.0
X185.5Y-52.0
X185.5Y-83.5
X186.0Y-63.5
X186.49Y-66.49
X186.5Y-72.5
X186.5Y-76.5
X186.5Y-82.5
X186.5Y-86.0
X186.5Y-104.0
X186.5Y-105.5
X186.5Y-108.0
X186.5Y-110.5
X186.5Y-113.5
X187.0Y-62.5
X187.0Y-122.42
X187.0Y-124.96
X187.0Y-127.5
X187.5Y-46.0
X187.5Y-49.0
X187.5Y-52.0
X187.5Y-71.5
X187.5Y-74.5
X187.5Y-81.5
X187.5Y-85.0
X188.0Y-61.5
X188.0Y-69.0
X188.5Y-70.5
X188.5Y-73.5
X188.5Y-80.5
X188.5Y-84.0
X189.5Y-46.0
X189.5Y-49.0
X189.5Y-52.0
X191.5Y-46.0
X191.5Y-49.0
X191.5Y-52.0
X193.5Y-46.0
X193.5Y-49.0
X193.5Y-52.0
X194.5Y-132.0
X195.5Y-46.0
X195.5Y-49.0
X195.5Y-52.0
X195.5Y-75.5
X195.5Y-107.0
X195.5Y-112.0
X196.92Y-120.92
X196.92Y-123.46
X196.92Y-126.0
X197.0Y-81.0
X197.5Y-46.0
X197.5Y-49.0
X197.5Y-52.0
X197.5Y-135.0
X197.5Y-136.0
X198.0Y-88.5
X198.0Y-111.0
X198.0Y-113.0
X198.0Y-115.5
X198.0Y-141.0
X198.5Y-70.5
X198.96Y-98.96
X198.96Y-101.5
X198.96Y-104.04
X199.0Y-136.0
X199.46Y-120.92
X199.46Y-123.46
X199.46Y-126.0
X199.5Y-46.0
X199.5Y-49.0
X199.5Y-52.0
X199.5Y-111.0
X199.5Y-113.0
X199.5Y-115.5
X199.5Y-137.5
X199.5Y-141.0
X200.0Y-70.0
X200.0Y-133.5
X201.0Y-111.0
X201.0Y-113.0
X201.0Y-115.5
X201.0Y-141.0
X201.42Y-55.92
X201.42Y-58.46
X201.42Y-61.0
X201.5Y-30.5
X201.5Y-32.0
X201.5Y-33.5
X201.5Y-35.0
X201.5Y-36.5
X201.5Y-38.0
X201.5Y-46.0
X201.5Y-49.0
X201.5Y-52.0
X201.5Y-68.0
X201.5Y-98.96
X201.5Y-101.5
X201.5Y-104.04
X201.5Y-133.5
X201.5Y-136.0
X201.5Y-140.0
X202.0Y-120.92
X202.0Y-123.46
X202.0Y-126.0
X202.0Y-132.0
X202.0Y-138.5
X202.5Y-69.5
X202.5Y-71.0
X202.5Y-111.0
X202.5Y-113.0
X202.5Y-115.5
X202.5Y-141.0
X203.0Y-133.5
X203.0Y-136.0
X203.0Y-148.5
X203.5Y-46.0
X203.5Y-48.5
X203.5Y-52.0
X203.5Y-80.0
X203.96Y-55.92
X203.96Y-58.46
X203.96Y-61.0
X204.0Y-70.0
X204.0Y-111.0
X204.0Y-113.0
X204.0Y-115.5
X204.0Y-135.0
X204.0Y-141.0
X204.04Y-98.96
X204.04Y-101.5
X204.04Y-104.04
X204.5Y-86.0
X204.5Y-88.5
X204.5Y-133.5
X204.5Y-136.0
X204.5Y-138.5
X205.0Y-46.0
X205.0Y-48.5
X205.0Y-52.5
X205.0Y-82.0
X205.5Y-33.0
X205.5Y-34.0
X205.5Y-35.0
X205.5Y-36.0
X205.5Y-68.5
X205.5Y-91.5
X205.5Y-111.0
X205.5Y-113.0
X205.5Y-115.5
X205.5Y-143.5
X205.5Y-150.0
X205.5Y-151.5
X205.5Y-153.0
X206.0Y-88.5
X206.0Y-133.5
X206.0Y-136.0
X206.0Y-138.5
X206.0Y-158.0
X206.5Y-35.0
X206.5Y-36.0
X206.5Y-46.0
X206.5Y-48.5
X206.5Y-52.0
X206.5Y-55.92
X206.5Y-58.46
X206.5Y-61.0
X206.5Y-66.0
X206.5Y-114.5
X206.5Y-141.0
X207.0Y-25.0
X207.0Y-26.0
X207.0Y-34.0
X207.0Y-67.5
X207.0Y-92.0
X207.0Y-111.0
X207.0Y-113.0
X207.0Y-116.0
X207.0Y-150.0
X207.5Y-28.0
X207.5Y-36.0
X207.5Y-88.5
X207.5Y-133.5
X207.5Y-136.0
X207.5Y-140.0
X207.5Y-152.0
X207.5Y-158.0
X208.0Y-26.0
X208.0Y-49.0
X208.0Y-52.0
X208.0Y-141.0
X208.5Y-66.0
X208.5Y-111.0
X208.5Y-113.0
X208.5Y-116.0
X208.5Y-138.5
X208.5Y-150.0
X209.0Y-25.0
X209.0Y-26.0
X209.0Y-74.0
X209.0Y-133.5
X209.0Y-136.0
X209.5Y-35.5
X209.5Y-114.0
X209.5Y-141.0
X209.5Y-147.0
X209.5Y-148.5
X209.5Y-159.5
X210.0Y-25.0
X210.0Y-49.0
X210.0Y-52.0
X210.0Y-66.0
X210.0Y-111.0
X210.0Y-128.5
X210.151Y-112.988
X210.5Y-63.0
X210.5Y-133.5
X210.5Y-136.0
X210.5Y-138.5
X210.5Y-142.0
X210.5Y-148.5
X211.0Y-25.0
X211.0Y-44.5
X211.5Y-42.0
X211.5Y-66.0
X211.5Y-148.5
X212.0Y-20.5
X212.0Y-21.5
X212.0Y-22.5
X212.0Y-24.5
X212.0Y-25.5
X212.0Y-35.0
X212.0Y-36.0
X212.0Y-49.0
X212.0Y-52.0
X212.0Y-63.0
X212.0Y-111.0
X212.0Y-113.0
X212.0Y-133.5
X212.0Y-136.0
X212.0Y-138.5
X212.0Y-140.0
X212.5Y-116.0
X212.5Y-159.0
X213.0Y-34.5
X213.0Y-36.0
X213.0Y-42.0
X213.0Y-66.0
X213.5Y-63.0
X213.5Y-111.0
X213.5Y-113.0
X213.5Y-133.5
X213.5Y-136.0
X214.0Y-29.0
X214.0Y-31.5
X214.0Y-33.0
X214.0Y-34.5
X214.0Y-36.0
X214.0Y-41.0
X214.0Y-116.0
X214.0Y-153.0
X214.0Y-156.0
X214.0Y-157.5
X214.0Y-159.0
X214.5Y-66.0
X215.0Y-31.5
X215.0Y-33.0
X215.0Y-34.5
X215.0Y-36.0
X215.0Y-42.0
X215.0Y-49.0
X215.0Y-63.0
X215.0Y-111.0
X215.0Y-113.0
X215.0Y-133.5
X215.0Y-136.0
X215.0Y-156.0
X215.0Y-159.0
X215.5Y-116.0
X215.84Y-80.34
X215.84Y-82.88
X215.84Y-85.42
X215.84Y-87.96
X215.84Y-90.5
X216.0Y-33.0
X216.0Y-34.5
X216.0Y-36.0
X216.0Y-66.0
X216.0Y-115.0
X216.0Y-157.0
X216.5Y-42.0
X216.5Y-49.0
X216.5Y-63.0
X216.5Y-111.0
X216.5Y-113.0
X216.5Y-117.0
X216.5Y-133.5
X216.5Y-136.0
X216.5Y-159.0
X216.92Y-98.92
X216.92Y-101.46
X216.92Y-104.0
X217.5Y-32.5
X217.5Y-137.5
X217.5Y-158.0
X218.0Y-111.0
X218.0Y-113.0
X218.0Y-114.0
X218.0Y-115.0
X218.0Y-116.0
X218.0Y-118.0
X218.0Y-133.5
X218.0Y-136.0
X218.38Y-80.34
X218.38Y-82.88
X218.38Y-85.42
X218.38Y-87.96
X218.38Y-90.5
X218.5Y-31.5
X218.5Y-33.0
X218.5Y-34.5
X218.5Y-36.0
X218.5Y-42.0
X218.5Y-49.0
X218.5Y-124.5
X218.5Y-157.0
X219.46Y-98.92
X219.46Y-101.46
X219.46Y-104.0
X219.5Y-27.5
X219.5Y-29.5
X219.5Y-30.5
X219.5Y-31.5
X219.5Y-111.0
X219.5Y-113.0
X219.5Y-114.0
X219.5Y-115.0
X219.5Y-118.0
X219.5Y-132.0
X219.5Y-133.5
X219.5Y-135.0
X219.5Y-136.0
X219.5Y-139.5
X219.5Y-141.0
X219.5Y-151.862
X219.5Y-153.0
X219.5Y-154.5
X219.5Y-156.0
X219.92Y-56.92
X219.92Y-59.46
X219.92Y-62.0
X219.92Y-66.92
X219.92Y-69.46
X219.92Y-72.0
X220.0Y-34.5
X220.0Y-36.0
X220.0Y-42.0
X220.0Y-116.0
X220.5Y-29.5
X220.5Y-49.0
X220.5Y-114.0
X220.92Y-80.34
X220.92Y-82.88
X220.92Y-85.42
X220.92Y-87.96
X220.92Y-90.5
X221.0Y-20.5
X221.0Y-21.5
X221.0Y-22.5
X221.0Y-23.5
X221.0Y-39.5
X221.0Y-118.0
X221.0Y-141.0
X221.0Y-144.5
X221.0Y-146.0
X221.0Y-147.5
X221.0Y-153.0
X221.0Y-155.0
X221.42Y-123.92
X221.42Y-126.46
X221.42Y-129.0
X221.5Y-29.5
X221.5Y-42.0
X221.5Y-115.0
X221.5Y-116.0
X222.0Y-25.5
X222.0Y-98.92
X222.0Y-101.46
X222.0Y-104.0
X222.0Y-113.0
X222.46Y-56.92
X222.46Y-59.46
X222.46Y-62.0
X222.46Y-66.92
X222.46Y-69.46
X222.46Y-72.0
X222.5Y-20.5
X222.5Y-21.5
X222.5Y-22.5
X222.5Y-23.5
X222.5Y-24.5
X222.5Y-26.5
X222.5Y-27.5
X222.5Y-28.5
X222.5Y-29.5
X222.5Y-39.0
X222.5Y-49.0
X222.5Y-141.0
X222.5Y-144.5
X222.5Y-146.0
X222.5Y-147.5
X222.5Y-149.5
X222.5Y-151.5
X222.5Y-153.0
X222.5Y-154.0
X223.0Y-115.0
X223.0Y-116.0
X223.0Y-118.0
X223.46Y-80.34
X223.46Y-82.88
X223.46Y-85.42
X223.46Y-87.96
X223.46Y-90.5
X223.5Y-38.0
X223.5Y-42.0
X223.5Y-113.0
X223.96Y-123.92
X223.96Y-126.46
X223.96Y-129.0
X224.0Y-20.5
X224.0Y-21.5
X224.0Y-22.5
X224.0Y-23.5
X224.0Y-24.5
X224.0Y-25.5
X224.0Y-26.5
X224.0Y-27.5
X224.0Y-28.5
X224.0Y-29.5
X224.0Y-141.0
X224.0Y-144.5
X224.42Y-95.92
X224.42Y-98.46
X224.42Y-101.0
X224.5Y-37.0
X224.5Y-49.0
X224.5Y-115.0
X224.5Y-116.0
X224.5Y-118.0
X225.0Y-41.5
X225.0Y-56.92
X225.0Y-59.46
X225.0Y-62.0
X225.0Y-66.92
X225.0Y-69.46
X225.0Y-72.0
X225.0Y-113.0
X225.5Y-20.5
X225.5Y-21.5
X225.5Y-22.5
X225.5Y-23.5
X225.5Y-24.5
X225.5Y-25.5
X225.5Y-26.5
X225.5Y-27.5
X225.5Y-28.5
X225.5Y-29.5
X225.5Y-36.0
X225.5Y-141.0
X225.5Y-144.5
X226.0Y-80.34
X226.0Y-82.88
X226.0Y-85.42
X226.0Y-87.96
X226.0Y-90.5
X226.0Y-115.0
X226.0Y-116.0
X226.0Y-118.0
X226.5Y-35.0
X226.5Y-49.0
X226.5Y-113.0
X226.5Y-123.92
X226.5Y-126.46
X226.5Y-129.0
X226.96Y-95.92
X226.96Y-98.46
X226.96Y-101.0
X227.0Y-141.0
X227.0Y-143.0
X227.5Y-34.0
X227.5Y-103.5
X227.5Y-115.0
X227.5Y-118.0
X228.5Y-33.0
X228.5Y-43.0
X229.0Y-148.5
X229.0Y-150.0
X229.0Y-151.5
X229.5Y-95.92
X229.5Y-98.46
X229.5Y-101.0
T3
X91.5Y-30.0
X91.5Y-32.54
X91.5Y-35.08
X91.5Y-73.5
X91.5Y-76.04
X91.5Y-146.92
X91.5Y-149.46
X91.5Y-152.0
X120.5Y-109.46
X120.5Y-112.0
X120.5Y-114.54
X120.5Y-117.08
X120.5Y-119.62
X120.5Y-122.16
X120.5Y-124.7
X120.5Y-127.24
X129.5Y-29.5
X129.5Y-32.04
X129.5Y-57.44
X129.5Y-59.98
X129.5Y-62.52
X129.5Y-65.06
X129.5Y-67.6
X129.5Y-70.14
X129.5Y-72.68
X129.5Y-75.22
X129.5Y-77.76
X129.5Y-80.3
X129.5Y-82.84
X129.5Y-85.38
X129.5Y-87.92
X129.5Y-90.46
X129.5Y-93.0
X129.5Y-95.54
X129.5Y-98.08
X129.5Y-100.62
X129.5Y-103.16
X129.5Y-105.7
X129.5Y-108.24
X129.5Y-110.78
X129.5Y-113.32
X129.5Y-115.86
X129.5Y-118.4
X129.5Y-120.94
X129.5Y-123.48
X129.5Y-126.02
X129.5Y-128.56
X129.5Y-131.1
X129.5Y-133.64
X129.5Y-136.18
X129.5Y-138.72
X129.5Y-141.26
X129.5Y-143.8
X129.5Y-146.34
X132.04Y-57.44
X132.04Y-59.98
X132.04Y-62.52
X132.04Y-65.06
X132.04Y-67.6
X132.04Y-70.14
X132.04Y-72.68
X132.04Y-75.22
X132.04Y-77.76
X132.04Y-80.3
X132.04Y-82.84
X132.04Y-85.38
X132.04Y-87.92
X132.04Y-90.46
X132.04Y-93.0
X132.04Y-95.54
X132.04Y-98.08
X132.04Y-100.62
X132.04Y-103.16
X132.04Y-105.7
X132.04Y-108.24
X132.04Y-110.78
X132.04Y-113.32
X132.04Y-115.86
X132.04Y-118.4
X132.04Y-120.94
X132.04Y-123.48
X132.04Y-126.02
X132.04Y-128.56
X132.04Y-131.1
X132.04Y-133.64
X132.04Y-136.18
X132.04Y-138.72
X132.04Y-141.26
X132.04Y-143.8
X132.04Y-146.34
X190.46Y-57.44
X190.46Y-59.98
X190.46Y-62.52
X190.46Y-65.06
X190.46Y-67.6
X190.46Y-70.14
X190.46Y-72.68
X190.46Y-75.22
X190.46Y-77.76
X190.46Y-80.3
X190.46Y-82.84
X190.46Y-85.38
X190.46Y-87.92
X190.46Y-90.46
X190.46Y-93.0
X190.46Y-95.54
X190.46Y-98.08
X190.46Y-100.62
X190.46Y-103.16
X190.46Y-105.7
X190.46Y-108.24
X190.46Y-110.78
X190.46Y-113.32
X190.46Y-115.86
X190.46Y-118.4
X190.46Y-120.94
X190.46Y-123.48
X190.46Y-126.02
X190.46Y-128.56
X190.46Y-131.1
X190.46Y-133.64
X190.46Y-136.18
X190.46Y-138.72
X190.46Y-141.26
X190.46Y-143.8
X190.46Y-146.34
X193.0Y-29.5
X193.0Y-32.04
X193.0Y-57.44
X193.0Y-59.98
X193.0Y-62.52
X193.0Y-65.06
X193.0Y-67.6
X193.0Y-70.14
X193.0Y-72.68
X193.0Y-75.22
X193.0Y-77.76
X193.0Y-80.3
X193.0Y-82.84
X193.0Y-85.38
X193.0Y-87.92
X193.0Y-90.46
X193.0Y-93.0
X193.0Y-95.54
X193.0Y-98.08
X193.0Y-100.62
X193.0Y-103.16
X193.0Y-105.7
X193.0Y-108.24
X193.0Y-110.78
X193.0Y-113.32
X193.0Y-115.86
X193.0Y-118.4
X193.0Y-120.94
X193.0Y-123.48
X193.0Y-126.02
X193.0Y-128.56
X193.0Y-131.1
X193.0Y-133.64
X193.0Y-136.18
X193.0Y-138.72
X193.0Y-141.26
X193.0Y-143.8
X193.0Y-146.34
X205.96Y-121.5
X208.5Y-121.5
X211.04Y-121.5
X212.22Y-80.0
X212.22Y-82.54
X212.22Y-85.08
X212.22Y-87.62
X212.22Y-90.16
X212.22Y-92.7
X213.58Y-121.5
X230.0Y-45.38
X230.0Y-47.92
X230.0Y-50.46
X230.0Y-53.0
X230.0Y-61.795
X230.0Y-64.335
X230.0Y-66.875
X230.0Y-80.0
X230.0Y-82.54
X230.0Y-85.08
X230.0Y-87.62
X230.0Y-90.16
X230.0Y-92.7
X230.0Y-106.42
X230.0Y-108.96
X230.0Y-111.5
X230.0Y-114.04
X230.0Y-116.58
X230.0Y-119.12
X230.0Y-126.8
X230.0Y-129.34
X230.0Y-131.88
X230.0Y-134.42
X230.0Y-136.96
X230.0Y-139.5
X230.0Y-142.04
X231.5Y-30.0
X231.5Y-32.54
X231.5Y-35.08
X231.5Y-146.92
X231.5Y-149.46
X231.5Y-152.0
T4
X91.5Y-24.0
X91.5Y-158.0
X231.5Y-24.0
X231.5Y-158.0
T3
G00X93.25Y-85.5
M15
G01X91.75Y-85.5
M16
G05
G00X93.25Y-94.5
M15
G01X91.75Y-94.5
M16
G05
G00X93.5Y-89.35
M15
G01X93.5Y-90.65
M16
G05
G00X99.5Y-89.0
M15
G01X99.5Y-91.0
M16
G05
M30
