%TF.GenerationSoftware,KiCad,Pcbnew,10.0.2*%
%TF.CreationDate,2026-05-17T16:34:23-04:00*%
%TF.ProjectId,Bellbot,42656c6c-626f-4742-9e6b-696361645f70,rev?*%
%TF.SameCoordinates,Original*%
%TF.FileFunction,Soldermask,Top*%
%TF.FilePolarity,Negative*%
%FSLAX46Y46*%
G04 Gerber Fmt 4.6, Leading zero omitted, Abs format (unit mm)*
G04 Created by KiCad (PCBNEW 10.0.2) date 2026-05-17 16:34:23*
%MOMM*%
%LPD*%
G01*
G04 APERTURE LIST*
G04 Aperture macros list*
%AMRoundRect*
0 Rectangle with rounded corners*
0 $1 Rounding radius*
0 $2 $3 $4 $5 $6 $7 $8 $9 X,Y pos of 4 corners*
0 Add a 4 corners polygon primitive as box body*
4,1,4,$2,$3,$4,$5,$6,$7,$8,$9,$2,$3,0*
0 Add four circle primitives for the rounded corners*
1,1,$1+$1,$2,$3*
1,1,$1+$1,$4,$5*
1,1,$1+$1,$6,$7*
1,1,$1+$1,$8,$9*
0 Add four rect primitives between the rounded corners*
20,1,$1+$1,$2,$3,$4,$5,0*
20,1,$1+$1,$4,$5,$6,$7,0*
20,1,$1+$1,$6,$7,$8,$9,0*
20,1,$1+$1,$8,$9,$2,$3,0*%
%AMFreePoly0*
4,1,21,-0.125000,1.200000,0.125000,1.200000,0.125000,1.700000,0.375000,1.700000,0.375000,1.200000,0.825000,1.200000,0.825000,-1.200000,0.375000,-1.200000,0.375000,-1.700000,0.125000,-1.700000,0.125000,-1.200000,-0.125000,-1.200000,-0.125000,-1.700000,-0.375000,-1.700000,-0.375000,-1.200000,-0.825000,-1.200000,-0.825000,1.200000,-0.375000,1.200000,-0.375000,1.700000,-0.125000,1.700000,
-0.125000,1.200000,-0.125000,1.200000,$1*%
G04 Aperture macros list end*
%ADD10C,1.700000*%
%ADD11RoundRect,0.250000X-0.750000X1.650000X-0.750000X-1.650000X0.750000X-1.650000X0.750000X1.650000X0*%
%ADD12RoundRect,0.150000X-0.512500X-0.150000X0.512500X-0.150000X0.512500X0.150000X-0.512500X0.150000X0*%
%ADD13RoundRect,0.237500X-0.237500X0.300000X-0.237500X-0.300000X0.237500X-0.300000X0.237500X0.300000X0*%
%ADD14RoundRect,0.250000X-1.650000X-0.750000X1.650000X-0.750000X1.650000X0.750000X-1.650000X0.750000X0*%
%ADD15RoundRect,0.250000X0.450000X-0.350000X0.450000X0.350000X-0.450000X0.350000X-0.450000X-0.350000X0*%
%ADD16RoundRect,0.250000X-0.450000X0.350000X-0.450000X-0.350000X0.450000X-0.350000X0.450000X0.350000X0*%
%ADD17RoundRect,0.250000X-0.350000X-0.450000X0.350000X-0.450000X0.350000X0.450000X-0.350000X0.450000X0*%
%ADD18RoundRect,0.225000X-0.225000X-0.375000X0.225000X-0.375000X0.225000X0.375000X-0.225000X0.375000X0*%
%ADD19C,3.800000*%
%ADD20RoundRect,0.250000X1.650000X0.750000X-1.650000X0.750000X-1.650000X-0.750000X1.650000X-0.750000X0*%
%ADD21RoundRect,0.237500X0.237500X-0.300000X0.237500X0.300000X-0.237500X0.300000X-0.237500X-0.300000X0*%
%ADD22R,1.700000X1.700000*%
%ADD23RoundRect,0.102000X-2.000000X0.650000X-2.000000X-0.650000X2.000000X-0.650000X2.000000X0.650000X0*%
%ADD24RoundRect,0.150000X0.512500X0.150000X-0.512500X0.150000X-0.512500X-0.150000X0.512500X-0.150000X0*%
%ADD25RoundRect,0.099250X-0.627750X-0.297750X0.627750X-0.297750X0.627750X0.297750X-0.627750X0.297750X0*%
%ADD26RoundRect,0.060000X-0.240000X-0.060000X0.240000X-0.060000X0.240000X0.060000X-0.240000X0.060000X0*%
%ADD27FreePoly0,0.000000*%
%ADD28C,1.600000*%
%ADD29R,2.000000X4.000000*%
%ADD30O,2.000000X3.300000*%
%ADD31O,3.500000X2.000000*%
%ADD32RoundRect,0.250000X0.350000X0.450000X-0.350000X0.450000X-0.350000X-0.450000X0.350000X-0.450000X0*%
%ADD33R,1.600200X5.689600*%
%ADD34RoundRect,0.237500X-0.300000X-0.237500X0.300000X-0.237500X0.300000X0.237500X-0.300000X0.237500X0*%
%ADD35RoundRect,0.250000X0.070711X-0.565685X0.565685X-0.070711X-0.070711X0.565685X-0.565685X0.070711X0*%
%ADD36RoundRect,0.250001X1.074999X2.324999X-1.074999X2.324999X-1.074999X-2.324999X1.074999X-2.324999X0*%
%ADD37R,5.560000X2.600000*%
%ADD38C,17.800000*%
%ADD39RoundRect,0.237500X0.300000X0.237500X-0.300000X0.237500X-0.300000X-0.237500X0.300000X-0.237500X0*%
%ADD40RoundRect,0.250000X0.750000X-1.650000X0.750000X1.650000X-0.750000X1.650000X-0.750000X-1.650000X0*%
%ADD41RoundRect,0.162500X-0.617500X-0.162500X0.617500X-0.162500X0.617500X0.162500X-0.617500X0.162500X0*%
G04 APERTURE END LIST*
D10*
%TO.C,U1*%
X193000000Y-32040000D03*
X193000000Y-29500000D03*
X129500000Y-32040000D03*
X129500000Y-29500000D03*
X193000000Y-146340000D03*
X190460000Y-146340000D03*
X193000000Y-143800000D03*
X190460000Y-143800000D03*
X193000000Y-141260000D03*
X190460000Y-141260000D03*
X193000000Y-138720000D03*
X190460000Y-138720000D03*
X193000000Y-136180000D03*
X190460000Y-136180000D03*
X193000000Y-133640000D03*
X190460000Y-133640000D03*
X193000000Y-131100000D03*
X190460000Y-131100000D03*
X193000000Y-128560000D03*
X190460000Y-128560000D03*
X193000000Y-126020000D03*
X190460000Y-126020000D03*
X193000000Y-123480000D03*
X190460000Y-123480000D03*
X193000000Y-120940000D03*
X190460000Y-120940000D03*
X193000000Y-118400000D03*
X190460000Y-118400000D03*
X193000000Y-115860000D03*
X190460000Y-115860000D03*
X193000000Y-113320000D03*
X190460000Y-113320000D03*
X193000000Y-110780000D03*
X190460000Y-110780000D03*
X193000000Y-108240000D03*
X190460000Y-108240000D03*
X193000000Y-105700000D03*
X190460000Y-105700000D03*
X193000000Y-103160000D03*
X190460000Y-103160000D03*
X193000000Y-100620000D03*
X190460000Y-100620000D03*
X193000000Y-98080000D03*
X190460000Y-98080000D03*
X193000000Y-95540000D03*
X190460000Y-95540000D03*
X193000000Y-93000000D03*
X190460000Y-93000000D03*
X193000000Y-90460000D03*
X190460000Y-90460000D03*
X193000000Y-87920000D03*
X190460000Y-87920000D03*
X193000000Y-85380000D03*
X190460000Y-85380000D03*
X193000000Y-82840000D03*
X190460000Y-82840000D03*
X193000000Y-80300000D03*
X190460000Y-80300000D03*
X193000000Y-77760000D03*
X190460000Y-77760000D03*
X193000000Y-75220000D03*
X190460000Y-75220000D03*
X193000000Y-72680000D03*
X190460000Y-72680000D03*
X193000000Y-70140000D03*
X190460000Y-70140000D03*
X193000000Y-67600000D03*
X190460000Y-67600000D03*
X193000000Y-65060000D03*
X190460000Y-65060000D03*
X193000000Y-62520000D03*
X190460000Y-62520000D03*
X193000000Y-59980000D03*
X190460000Y-59980000D03*
X193000000Y-57440000D03*
X190460000Y-57440000D03*
X132040000Y-146340000D03*
X129500000Y-146340000D03*
X132040000Y-143800000D03*
X129500000Y-143800000D03*
X132040000Y-141260000D03*
X129500000Y-141260000D03*
X132040000Y-138720000D03*
X129500000Y-138720000D03*
X132040000Y-136180000D03*
X129500000Y-136180000D03*
X132040000Y-133640000D03*
X129500000Y-133640000D03*
X132040000Y-131100000D03*
X129500000Y-131100000D03*
X132040000Y-128560000D03*
X129500000Y-128560000D03*
X132040000Y-126020000D03*
X129500000Y-126020000D03*
X132040000Y-123480000D03*
X129500000Y-123480000D03*
X132040000Y-120940000D03*
X129500000Y-120940000D03*
X132040000Y-118400000D03*
X129500000Y-118400000D03*
X132040000Y-115860000D03*
X129500000Y-115860000D03*
X132040000Y-113320000D03*
X129500000Y-113320000D03*
X132040000Y-110780000D03*
X129500000Y-110780000D03*
X132040000Y-108240000D03*
X129500000Y-108240000D03*
X132040000Y-105700000D03*
X129500000Y-105700000D03*
X132040000Y-103160000D03*
X129500000Y-103160000D03*
X132040000Y-100620000D03*
X129500000Y-100620000D03*
X132040000Y-98080000D03*
X129500000Y-98080000D03*
X132040000Y-95540000D03*
X129500000Y-95540000D03*
X132040000Y-93000000D03*
X129500000Y-93000000D03*
X132040000Y-90460000D03*
X129500000Y-90460000D03*
X132040000Y-87920000D03*
X129500000Y-87920000D03*
X132040000Y-85380000D03*
X129500000Y-85380000D03*
X132040000Y-82840000D03*
X129500000Y-82840000D03*
X132040000Y-80300000D03*
X129500000Y-80300000D03*
X132040000Y-77760000D03*
X129500000Y-77760000D03*
X132040000Y-75220000D03*
X129500000Y-75220000D03*
X132040000Y-72680000D03*
X129500000Y-72680000D03*
X132040000Y-70140000D03*
X129500000Y-70140000D03*
X132040000Y-67600000D03*
X129500000Y-67600000D03*
X132040000Y-65060000D03*
X129500000Y-65060000D03*
X132040000Y-62520000D03*
X129500000Y-62520000D03*
X132040000Y-59980000D03*
X129500000Y-59980000D03*
X132040000Y-57440000D03*
X129500000Y-57440000D03*
%TD*%
D11*
%TO.C,TP25*%
X233475000Y-118125000D03*
%TD*%
D12*
%TO.C,U3*%
X101000000Y-74000000D03*
X101000000Y-74950000D03*
X101000000Y-75900000D03*
X103275000Y-75900000D03*
X103275000Y-74000000D03*
%TD*%
D13*
%TO.C,C27*%
X210500000Y-156637500D03*
X210500000Y-158362500D03*
%TD*%
D14*
%TO.C,TP19*%
X214000000Y-45500000D03*
%TD*%
D15*
%TO.C,R23*%
X208500000Y-128500000D03*
X208500000Y-126500000D03*
%TD*%
D16*
%TO.C,R27*%
X185000000Y-87500000D03*
X185000000Y-89500000D03*
%TD*%
D17*
%TO.C,R5*%
X98500000Y-30500000D03*
X100500000Y-30500000D03*
%TD*%
D18*
%TO.C,D3*%
X98850000Y-152000000D03*
X102150000Y-152000000D03*
%TD*%
D13*
%TO.C,C18*%
X115000000Y-56637500D03*
X115000000Y-58362500D03*
%TD*%
D19*
%TO.C,H3*%
X231500000Y-158000000D03*
%TD*%
D20*
%TO.C,TP13*%
X231500000Y-40000000D03*
%TD*%
D21*
%TO.C,C33*%
X94500000Y-76362500D03*
X94500000Y-74637500D03*
%TD*%
D14*
%TO.C,TP20*%
X93500000Y-103500000D03*
%TD*%
D21*
%TO.C,C17*%
X221000000Y-151862500D03*
X221000000Y-150137500D03*
%TD*%
D17*
%TO.C,R30*%
X141000000Y-112000000D03*
X143000000Y-112000000D03*
%TD*%
D14*
%TO.C,TP10*%
X224000000Y-111000000D03*
%TD*%
%TO.C,TP12*%
X105000000Y-141000000D03*
%TD*%
%TO.C,TP23*%
X203500000Y-26500000D03*
%TD*%
D13*
%TO.C,C34*%
X94000000Y-69637500D03*
X94000000Y-71362500D03*
%TD*%
D14*
%TO.C,TP3*%
X224000000Y-137500000D03*
%TD*%
D22*
%TO.C,J5*%
X230000000Y-106420000D03*
D10*
X230000000Y-108960000D03*
X230000000Y-111500000D03*
X230000000Y-114040000D03*
X230000000Y-116580000D03*
X230000000Y-119120000D03*
%TD*%
D15*
%TO.C,R2*%
X202000000Y-92500000D03*
X202000000Y-90500000D03*
%TD*%
D23*
%TO.C,L7*%
X114775000Y-68875000D03*
X114775000Y-71575000D03*
%TD*%
D17*
%TO.C,R31*%
X137000000Y-137500000D03*
X139000000Y-137500000D03*
%TD*%
D24*
%TO.C,U11*%
X98500000Y-72400000D03*
X98500000Y-71450000D03*
X98500000Y-70500000D03*
X96225000Y-70500000D03*
X96225000Y-71450000D03*
X96225000Y-72400000D03*
%TD*%
D13*
%TO.C,C38*%
X94500000Y-152137500D03*
X94500000Y-153862500D03*
%TD*%
D17*
%TO.C,R9*%
X98500000Y-154500000D03*
X100500000Y-154500000D03*
%TD*%
D25*
%TO.C,U4*%
X105245000Y-28050000D03*
X105245000Y-29000000D03*
X105245000Y-29950000D03*
X107755000Y-29950000D03*
X107755000Y-28050000D03*
%TD*%
D17*
%TO.C,R11*%
X208500000Y-154500000D03*
X210500000Y-154500000D03*
%TD*%
%TO.C,R17*%
X105500000Y-52000000D03*
X107500000Y-52000000D03*
%TD*%
D26*
%TO.C,U10*%
X117800000Y-69225000D03*
X117800000Y-69725000D03*
X117800000Y-70225000D03*
X117800000Y-70725000D03*
X117800000Y-71225000D03*
X120600000Y-71225000D03*
X120600000Y-70725000D03*
X120600000Y-70225000D03*
X120600000Y-69725000D03*
X120600000Y-69225000D03*
D27*
X119200000Y-70225000D03*
%TD*%
D17*
%TO.C,R20*%
X108500000Y-64500000D03*
X110500000Y-64500000D03*
%TD*%
D25*
%TO.C,U5*%
X215245000Y-28050000D03*
X215245000Y-29000000D03*
X215245000Y-29950000D03*
X217755000Y-29950000D03*
X217755000Y-28050000D03*
%TD*%
D20*
%TO.C,TP6*%
X220500000Y-52500000D03*
%TD*%
D14*
%TO.C,TP9*%
X213000000Y-98500000D03*
%TD*%
D13*
%TO.C,C10*%
X210500000Y-32637500D03*
X210500000Y-34362500D03*
%TD*%
D16*
%TO.C,R4*%
X225500000Y-104500000D03*
X225500000Y-106500000D03*
%TD*%
D21*
%TO.C,C36*%
X94500000Y-30362500D03*
X94500000Y-28637500D03*
%TD*%
D23*
%TO.C,L6*%
X96000000Y-51650000D03*
X96000000Y-54350000D03*
%TD*%
D21*
%TO.C,C6*%
X111000000Y-27862500D03*
X111000000Y-26137500D03*
%TD*%
D14*
%TO.C,TP21*%
X206500000Y-147500000D03*
%TD*%
D28*
%TO.C,J7*%
X90500000Y-90000000D03*
D29*
X99500000Y-90000000D03*
D30*
X93500000Y-90000000D03*
D31*
X92500000Y-85500000D03*
X92500000Y-94500000D03*
%TD*%
D32*
%TO.C,R25*%
X141000000Y-47500000D03*
X139000000Y-47500000D03*
%TD*%
D33*
%TO.C,L2*%
X218849500Y-23500000D03*
X214150500Y-23500000D03*
%TD*%
D34*
%TO.C,D10*%
X116775000Y-103500000D03*
X118500000Y-103500000D03*
%TD*%
D13*
%TO.C,C26*%
X96500000Y-30637500D03*
X96500000Y-32362500D03*
%TD*%
D15*
%TO.C,R3*%
X209000000Y-95000000D03*
X209000000Y-93000000D03*
%TD*%
D34*
%TO.C,C3*%
X117912500Y-67225000D03*
X119637500Y-67225000D03*
%TD*%
D17*
%TO.C,R29*%
X135500000Y-109500000D03*
X137500000Y-109500000D03*
%TD*%
D22*
%TO.C,J2*%
X230000000Y-53000000D03*
D10*
X230000000Y-50460000D03*
X230000000Y-47920000D03*
X230000000Y-45380000D03*
%TD*%
D22*
%TO.C,J6*%
X230000000Y-126800000D03*
D10*
X230000000Y-129340000D03*
X230000000Y-131880000D03*
X230000000Y-134420000D03*
X230000000Y-136960000D03*
X230000000Y-139500000D03*
X230000000Y-142040000D03*
%TD*%
D21*
%TO.C,C5*%
X227000000Y-44862500D03*
X227000000Y-43137500D03*
%TD*%
D13*
%TO.C,C16*%
X98500000Y-156637500D03*
X98500000Y-158362500D03*
%TD*%
D22*
%TO.C,J4*%
X230000000Y-80000000D03*
D10*
X230000000Y-82540000D03*
X230000000Y-85080000D03*
X230000000Y-87620000D03*
X230000000Y-90160000D03*
X230000000Y-92700000D03*
%TD*%
D21*
%TO.C,C37*%
X228500000Y-29725000D03*
X228500000Y-28000000D03*
%TD*%
D13*
%TO.C,C28*%
X206500000Y-154637500D03*
X206500000Y-156362500D03*
%TD*%
D14*
%TO.C,TP2*%
X216000000Y-140000000D03*
%TD*%
D22*
%TO.C,J8*%
X205960000Y-121500000D03*
D10*
X208500000Y-121500000D03*
X211040000Y-121500000D03*
X213580000Y-121500000D03*
%TD*%
D16*
%TO.C,R16*%
X119275000Y-73225000D03*
X119275000Y-75225000D03*
%TD*%
D35*
%TO.C,R32*%
X181792893Y-78707107D03*
X183207107Y-77292893D03*
%TD*%
D13*
%TO.C,C7*%
X100500000Y-32637500D03*
X100500000Y-34362500D03*
%TD*%
D36*
%TO.C,D5*%
X112275000Y-90000000D03*
X105725000Y-90000000D03*
%TD*%
D21*
%TO.C,C1*%
X117275000Y-75087500D03*
X117275000Y-73362500D03*
%TD*%
D33*
%TO.C,L4*%
X218849500Y-147500000D03*
X214150500Y-147500000D03*
%TD*%
D17*
%TO.C,R15*%
X111000000Y-46500000D03*
X113000000Y-46500000D03*
%TD*%
D13*
%TO.C,C14*%
X100500000Y-156637500D03*
X100500000Y-158362500D03*
%TD*%
D17*
%TO.C,R7*%
X208500000Y-30500000D03*
X210500000Y-30500000D03*
%TD*%
D13*
%TO.C,C29*%
X208500000Y-156637500D03*
X208500000Y-158362500D03*
%TD*%
D20*
%TO.C,TP14*%
X91500000Y-38500000D03*
%TD*%
D32*
%TO.C,R22*%
X123500000Y-103500000D03*
X121500000Y-103500000D03*
%TD*%
D33*
%TO.C,L1*%
X108849500Y-23500000D03*
X104150500Y-23500000D03*
%TD*%
%TO.C,L3*%
X108849500Y-147500000D03*
X104150500Y-147500000D03*
%TD*%
D13*
%TO.C,C15*%
X96500000Y-154637500D03*
X96500000Y-156362500D03*
%TD*%
D14*
%TO.C,TP18*%
X218500000Y-128000000D03*
%TD*%
D36*
%TO.C,D6*%
X115775000Y-81500000D03*
X109225000Y-81500000D03*
%TD*%
D26*
%TO.C,U2*%
X115700000Y-52500000D03*
X115700000Y-53000000D03*
X115700000Y-53500000D03*
X115700000Y-54000000D03*
X115700000Y-54500000D03*
X118500000Y-54500000D03*
X118500000Y-54000000D03*
X118500000Y-53500000D03*
X118500000Y-53000000D03*
X118500000Y-52500000D03*
D27*
X117100000Y-53500000D03*
%TD*%
D18*
%TO.C,D4*%
X208700000Y-152000000D03*
X212000000Y-152000000D03*
%TD*%
D16*
%TO.C,R1*%
X206500000Y-85000000D03*
X206500000Y-87000000D03*
%TD*%
D34*
%TO.C,C20*%
X115637500Y-50500000D03*
X117362500Y-50500000D03*
%TD*%
D14*
%TO.C,TP17*%
X205500000Y-74500000D03*
%TD*%
%TO.C,TP5*%
X220500000Y-45500000D03*
%TD*%
D22*
%TO.C,J13*%
X230000000Y-61795000D03*
D10*
X230000000Y-64335000D03*
X230000000Y-66875000D03*
%TD*%
D13*
%TO.C,C22*%
X98500000Y-56137500D03*
X98500000Y-57862500D03*
%TD*%
D22*
%TO.C,J1*%
X91500000Y-73500000D03*
D10*
X91500000Y-76040000D03*
%TD*%
D25*
%TO.C,U6*%
X105245000Y-152050000D03*
X105245000Y-153000000D03*
X105245000Y-153950000D03*
X107755000Y-153950000D03*
X107755000Y-152050000D03*
%TD*%
D16*
%TO.C,R13*%
X117000000Y-56500000D03*
X117000000Y-58500000D03*
%TD*%
D13*
%TO.C,C11*%
X206500000Y-30637500D03*
X206500000Y-32362500D03*
%TD*%
D34*
%TO.C,C25*%
X99637500Y-48500000D03*
X101362500Y-48500000D03*
%TD*%
D37*
%TO.C,BT1*%
X105500000Y-130905000D03*
X105500000Y-107095000D03*
D38*
X105500000Y-119000000D03*
%TD*%
D20*
%TO.C,TP16*%
X218500000Y-120000000D03*
%TD*%
D18*
%TO.C,D2*%
X208850000Y-28000000D03*
X212150000Y-28000000D03*
%TD*%
D19*
%TO.C,H2*%
X91500000Y-24000000D03*
%TD*%
D16*
%TO.C,R10*%
X102500000Y-154500000D03*
X102500000Y-156500000D03*
%TD*%
%TO.C,R6*%
X102500000Y-30500000D03*
X102500000Y-32500000D03*
%TD*%
D14*
%TO.C,TP15*%
X225500000Y-148500000D03*
%TD*%
D13*
%TO.C,C12*%
X208500000Y-32637500D03*
X208500000Y-34362500D03*
%TD*%
%TO.C,C2*%
X121275000Y-73500000D03*
X121275000Y-75225000D03*
%TD*%
D23*
%TO.C,L5*%
X112500000Y-52150000D03*
X112500000Y-54850000D03*
%TD*%
D22*
%TO.C,J3*%
X212220000Y-80000000D03*
D10*
X212220000Y-82540000D03*
X212220000Y-85080000D03*
X212220000Y-87620000D03*
X212220000Y-90160000D03*
X212220000Y-92700000D03*
%TD*%
D39*
%TO.C,C31*%
X103362500Y-77500000D03*
X101637500Y-77500000D03*
%TD*%
D13*
%TO.C,C39*%
X228500000Y-152775000D03*
X228500000Y-154500000D03*
%TD*%
D21*
%TO.C,D8*%
X107500000Y-55862500D03*
X107500000Y-54137500D03*
%TD*%
D39*
%TO.C,D9*%
X114725000Y-64500000D03*
X113000000Y-64500000D03*
%TD*%
D16*
%TO.C,R12*%
X212500000Y-154500000D03*
X212500000Y-156500000D03*
%TD*%
D14*
%TO.C,TP1*%
X224000000Y-132500000D03*
%TD*%
D25*
%TO.C,U7*%
X215245000Y-152050000D03*
X215245000Y-153000000D03*
X215245000Y-153950000D03*
X217755000Y-153950000D03*
X217755000Y-152050000D03*
%TD*%
D34*
%TO.C,C21*%
X115637500Y-49000000D03*
X117362500Y-49000000D03*
%TD*%
D21*
%TO.C,C13*%
X111000000Y-151862500D03*
X111000000Y-150137500D03*
%TD*%
D40*
%TO.C,TP4*%
X234000000Y-141500000D03*
%TD*%
%TO.C,TP8*%
X199500000Y-94000000D03*
%TD*%
D18*
%TO.C,D1*%
X98850000Y-28000000D03*
X102150000Y-28000000D03*
%TD*%
D16*
%TO.C,R18*%
X105500000Y-74000000D03*
X105500000Y-76000000D03*
%TD*%
D22*
%TO.C,J9*%
X91500000Y-30000000D03*
D10*
X91500000Y-32540000D03*
X91500000Y-35080000D03*
%TD*%
D22*
%TO.C,J12*%
X231500000Y-152000000D03*
D10*
X231500000Y-149460000D03*
X231500000Y-146920000D03*
%TD*%
D26*
%TO.C,U8*%
X99200000Y-52000000D03*
X99200000Y-52500000D03*
X99200000Y-53000000D03*
X99200000Y-53500000D03*
X99200000Y-54000000D03*
X102000000Y-54000000D03*
X102000000Y-53500000D03*
X102000000Y-53000000D03*
X102000000Y-52500000D03*
X102000000Y-52000000D03*
D27*
X100600000Y-53000000D03*
%TD*%
D35*
%TO.C,R28*%
X180292893Y-71207107D03*
X181707107Y-69792893D03*
%TD*%
D17*
%TO.C,R21*%
X90000000Y-69500000D03*
X92000000Y-69500000D03*
%TD*%
D19*
%TO.C,H4*%
X91500000Y-158000000D03*
%TD*%
D13*
%TO.C,C19*%
X119000000Y-56637500D03*
X119000000Y-58362500D03*
%TD*%
%TO.C,C8*%
X98500000Y-32637500D03*
X98500000Y-34362500D03*
%TD*%
D16*
%TO.C,R8*%
X212500000Y-30500000D03*
X212500000Y-32500000D03*
%TD*%
D21*
%TO.C,C9*%
X221000000Y-27725000D03*
X221000000Y-26000000D03*
%TD*%
D22*
%TO.C,J10*%
X231500000Y-30000000D03*
D10*
X231500000Y-32540000D03*
X231500000Y-35080000D03*
%TD*%
D41*
%TO.C,U14*%
X96000000Y-79000000D03*
X96000000Y-79950000D03*
X96000000Y-80900000D03*
X98700000Y-80900000D03*
X98700000Y-79950000D03*
X98700000Y-79000000D03*
%TD*%
D19*
%TO.C,H1*%
X231500000Y-24000000D03*
%TD*%
D14*
%TO.C,TP24*%
X118000000Y-149500000D03*
%TD*%
D34*
%TO.C,C24*%
X99637500Y-50000000D03*
X101362500Y-50000000D03*
%TD*%
D17*
%TO.C,R19*%
X100500000Y-70500000D03*
X102500000Y-70500000D03*
%TD*%
D16*
%TO.C,R24*%
X211000000Y-115000000D03*
X211000000Y-117000000D03*
%TD*%
D20*
%TO.C,TP11*%
X224000000Y-120000000D03*
%TD*%
D39*
%TO.C,D7*%
X116862500Y-46500000D03*
X115137500Y-46500000D03*
%TD*%
D22*
%TO.C,J14*%
X120500000Y-109460000D03*
D10*
X120500000Y-112000000D03*
X120500000Y-114540000D03*
X120500000Y-117080000D03*
X120500000Y-119620000D03*
X120500000Y-122160000D03*
X120500000Y-124700000D03*
X120500000Y-127240000D03*
%TD*%
D34*
%TO.C,C4*%
X117912500Y-65725000D03*
X119637500Y-65725000D03*
%TD*%
D16*
%TO.C,R14*%
X100500000Y-56000000D03*
X100500000Y-58000000D03*
%TD*%
D14*
%TO.C,TP22*%
X103000000Y-38500000D03*
%TD*%
D32*
%TO.C,R26*%
X142500000Y-50500000D03*
X140500000Y-50500000D03*
%TD*%
D14*
%TO.C,TP7*%
X201000000Y-84500000D03*
%TD*%
D22*
%TO.C,J11*%
X91500000Y-152000000D03*
D10*
X91500000Y-149460000D03*
X91500000Y-146920000D03*
%TD*%
D13*
%TO.C,C23*%
X102500000Y-56137500D03*
X102500000Y-57862500D03*
%TD*%
M02*
